<!DOCTYPE svg PUBLIC "-//W3C//DTD SVG 20010904//EN" "http://www.w3.org/TR/2001/REC-SVG-20010904/DTD/svg10.dtd">
<svg version="1.0" xmlns="http://www.w3.org/2000/svg" width="353px" height="325px" viewBox="0 0 3530 3250" preserveAspectRatio="xMidYMid meet">
<g id="layer101" fill="#475137" stroke="none">
 <path d="M50 3045 c0 -3 19 -39 43 -80 l42 -75 996 0 995 0 42 74 c23 40 42 76 42 80 0 3 -486 6 -1080 6 -594 0 -1080 -2 -1080 -5z"/>
 <path d="M2430 2833 c-69 -120 -209 -364 -312 -542 l-187 -325 42 -78 c23 -43 46 -77 51 -75 7 2 698 1188 713 1225 4 9 -17 12 -88 12 l-94 0 -125 -217z"/>
 <path d="M2882 2983 c-132 -228 -751 -1302 -760 -1319 -9 -17 -3 -33 35 -98 25 -43 49 -74 53 -70 5 5 200 342 435 749 235 407 436 755 447 773 l20 32 -96 0 -95 0 -39 -67z"/>
 <path d="M2791 2194 c-272 -471 -494 -862 -494 -868 1 -21 86 -157 93 -149 9 9 1080 1863 1080 1869 0 2 -42 4 -92 4 l-93 0 -494 -856z"/>
 <path d="M230 2733 c0 -3 21 -42 46 -85 l46 -78 809 0 808 0 41 69 c22 39 43 77 46 85 6 14 -82 16 -895 16 -496 0 -901 -3 -901 -7z"/>
 <path d="M441 2363 c18 -32 40 -71 49 -87 l15 -28 623 5 c510 4 626 7 637 18 7 8 29 44 50 82 l37 67 -722 0 -721 0 32 -57z"/>
 <path d="M682 1961 c14 -38 1075 -1860 1081 -1858 5 1 27 37 50 78 l41 75 -495 857 -494 857 -93 0 c-52 0 -92 -4 -90 -9z"/>
 <path d="M1058 1938 c11 -18 212 -366 447 -773 234 -407 430 -743 434 -747 3 -4 27 28 53 72 l46 79 -403 698 -403 698 -97 3 -97 3 20 -33z"/>
 <path d="M1410 1965 c0 -4 708 -1234 715 -1243 2 -2 23 34 47 79 l45 82 -311 543 -311 544 -92 0 c-51 0 -93 -2 -93 -5z"/>
 </g>

</svg>